<svg width="30" height="30" viewBox="0 0 30 30" fill="none" xmlns="http://www.w3.org/2000/svg">
<path d="M0 2.4C0 1.07452 1.07452 0 2.4 0H27.6C28.9255 0 30 1.07452 30 2.4C30 3.72548 28.9255 4.8 27.6 4.8H2.4C1.07452 4.8 0 3.72548 0 2.4Z" fill="white"/>
<path d="M0 27.6C0 26.2745 1.07452 25.2 2.4 25.2H27.6C28.9255 25.2 30 26.2745 30 27.6C30 28.9255 28.9255 30 27.6 30H2.4C1.07452 30 0 28.9255 0 27.6Z" fill="white"/>
<path d="M0 15.6C0 14.2745 1.07452 13.2 2.4 13.2H27.6C28.9255 13.2 30 14.2745 30 15.6C30 16.9255 28.9255 18 27.6 18H2.4C1.07452 18 0 16.9255 0 15.6Z" fill="white"/>
</svg>
