<?xml version="1.0" encoding="utf-8"?>
<!-- Generator: Adobe Illustrator 24.2.0, SVG Export Plug-In . SVG Version: 6.00 Build 0)  -->
<svg version="1.1" xmlns="http://www.w3.org/2000/svg" xmlns:xlink="http://www.w3.org/1999/xlink" x="0px" y="0px"
	 viewBox="0 0 1639.95 432" style="enable-background:new 0 0 1639.95 432;" xml:space="preserve">
<style type="text/css">
	.st0{fill:#D9D9DA;}
	.st1{fill:#69696D;}
	.st2{fill:#FFFFFF;}
	.st3{fill:url(#SVGID_1_);}
	.st4{fill:#999999;}
	.st5{fill:url(#SVGID_2_);}
	.st6{fill:url(#SVGID_3_);}
	.st7{fill:url(#SVGID_4_);}
	.st8{fill:url(#SVGID_5_);}
	.st9{fill:#08B3E7;}
	.st10{fill:#004D81;}
	.st11{fill:url(#SVGID_6_);}
	.st12{fill:url(#SVGID_7_);}
	.st13{display:none;}
	.st14{display:inline;}
	.st15{display:inline;clip-path:url(#SVGID_9_);}
	.st16{fill:url(#SVGID_10_);}
	.st17{fill:#A6B0BF;}
	.st18{fill:url(#SVGID_11_);}
	.st19{fill:url(#SVGID_12_);}
	.st20{fill:#000377;}
	.st21{clip-path:url(#SVGID_18_);}
	.st22{clip-path:url(#SVGID_20_);}
	.st23{clip-path:url(#SVGID_22_);}
	.st24{clip-path:url(#SVGID_24_);}
	.st25{fill:#024E81;}
	.st26{fill:#0EB4E7;}
</style>
<g id="Camada_1">
	<path class="st0" d="M355.39,360.39H120.18c-28.49,0-51.59-23.1-51.59-51.59V119.24c0-28.49,23.1-51.59,51.59-51.59h235.21
		c28.49,0,51.59,23.1,51.59,51.59v189.55C406.98,337.29,383.88,360.39,355.39,360.39z"/>
	<g>
		<path class="st1" d="M597.63,241.89c0-4.56-1.61-8.07-4.83-10.51c-3.22-2.44-9.02-5.02-17.4-7.73
			c-8.38-2.71-15.01-5.38-19.89-8.01c-13.32-7.19-19.98-16.89-19.98-29.08c0-6.33,1.79-11.99,5.36-16.96
			c3.57-4.97,8.7-8.85,15.38-11.64c6.69-2.79,14.19-4.19,22.51-4.19c8.38,0,15.84,1.52,22.39,4.55c6.55,3.03,11.64,7.32,15.26,12.85
			c3.62,5.53,5.44,11.81,5.44,18.85h-24.16c0-5.37-1.69-9.54-5.07-12.52c-3.38-2.98-8.13-4.47-14.26-4.47
			c-5.91,0-10.5,1.25-13.77,3.75c-3.28,2.5-4.91,5.79-4.91,9.87c0,3.81,1.92,7.01,5.76,9.58c3.84,2.58,9.49,4.99,16.95,7.25
			c13.75,4.14,23.76,9.26,30.04,15.38c6.28,6.12,9.42,13.75,9.42,22.88c0,10.15-3.84,18.11-11.52,23.88
			c-7.68,5.77-18.02,8.66-31.01,8.66c-9.02,0-17.24-1.65-24.65-4.95c-7.41-3.3-13.06-7.83-16.95-13.57
			c-3.89-5.75-5.84-12.4-5.84-19.98h24.24c0,12.94,7.73,19.41,23.2,19.41c5.75,0,10.23-1.17,13.45-3.5S597.63,246.08,597.63,241.89z
			"/>
		<path class="st1" d="M645.44,228.28c0-8.64,1.66-16.35,4.99-23.12c3.33-6.77,8.12-12,14.38-15.71c6.25-3.71,13.52-5.56,21.79-5.56
			c11.76,0,21.36,3.6,28.79,10.79c7.44,7.2,11.58,16.97,12.44,29.32l0.16,5.96c0,13.37-3.73,24.1-11.2,32.18
			c-7.46,8.08-17.48,12.12-30.04,12.12c-12.56,0-22.59-4.03-30.08-12.08c-7.49-8.05-11.24-19.01-11.24-32.86V228.28z M668.72,229.93
			c0,8.28,1.56,14.62,4.67,19c3.11,4.38,7.57,6.57,13.37,6.57c5.64,0,10.04-2.16,13.21-6.49c3.17-4.33,4.75-11.25,4.75-20.77
			c0-8.12-1.58-14.41-4.75-18.88c-3.17-4.46-7.63-6.7-13.37-6.7c-5.69,0-10.1,2.22-13.21,6.66
			C670.27,213.76,668.72,220.63,668.72,229.93z"/>
		<path class="st1" d="M761.07,272.66v-70.07H748.1v-17.08h12.97v-7.41c0-9.77,2.8-17.36,8.42-22.75c5.61-5.4,13.46-8.09,23.56-8.09
			c3.22,0,7.17,0.54,11.84,1.61l-0.24,18.04c-1.93-0.48-4.3-0.72-7.09-0.72c-8.75,0-13.13,4.11-13.13,12.32v7.01h17.32v17.08h-17.32
			v70.07H761.07z"/>
		<path class="st1" d="M854.07,164.09v21.42h14.9v17.08h-14.9v43.49c0,3.22,0.62,5.53,1.85,6.93c1.23,1.4,3.6,2.09,7.09,2.09
			c2.58,0,4.86-0.19,6.85-0.56v17.64c-4.57,1.4-9.26,2.09-14.1,2.09c-16.32,0-24.65-8.24-24.97-24.73v-46.96h-12.73v-17.08h12.73
			v-21.42H854.07z"/>
		<path class="st1" d="M963.73,241.97H914.6l-11.03,30.69h-15.95l44.78-117.27h13.53l44.86,117.27h-15.87L963.73,241.97z
			 M919.27,229.33h39.87l-19.97-54.85L919.27,229.33z"/>
		<path class="st1" d="M1030.64,185.51l0.4,9.67c6.39-7.52,15.01-11.28,25.85-11.28c12.19,0,20.49,4.67,24.89,14.01
			c2.9-4.19,6.67-7.57,11.32-10.15c4.64-2.58,10.13-3.87,16.47-3.87c19.12,0,28.83,10.12,29.16,30.37v58.39h-14.9v-57.51
			c0-6.23-1.42-10.89-4.27-13.97c-2.85-3.09-7.63-4.63-14.34-4.63c-5.53,0-10.12,1.65-13.77,4.95c-3.65,3.3-5.77,7.75-6.36,13.33
			v57.83h-14.98v-57.11c0-12.67-6.2-19.01-18.61-19.01c-9.77,0-16.46,4.16-20.05,12.48v63.63h-14.9v-87.15H1030.64z"/>
		<path class="st1" d="M1169.62,228.28c0-8.54,1.68-16.22,5.03-23.04c3.36-6.82,8.03-12.08,14.01-15.79s12.82-5.56,20.5-5.56
			c11.87,0,21.46,4.11,28.79,12.32c7.33,8.22,10.99,19.14,10.99,32.78v1.05c0,8.48-1.62,16.1-4.87,22.83
			c-3.25,6.74-7.89,11.99-13.93,15.75c-6.04,3.76-12.98,5.64-20.82,5.64c-11.81,0-21.38-4.11-28.71-12.32
			c-7.33-8.22-11-19.09-11-32.62V228.28z M1184.6,230.05c0,9.67,2.24,17.42,6.73,23.28c4.48,5.85,10.48,8.78,18,8.78
			c7.57,0,13.58-2.97,18.04-8.9c4.46-5.93,6.68-14.24,6.68-24.93c0-9.56-2.27-17.3-6.81-23.24c-4.54-5.93-10.57-8.9-18.08-8.9
			c-7.36,0-13.29,2.93-17.8,8.78C1186.86,210.78,1184.6,219.15,1184.6,230.05z"/>
		<path class="st1" d="M1330.76,249.55c0-4.03-1.52-7.15-4.55-9.38c-3.03-2.23-8.32-4.15-15.87-5.76
			c-7.54-1.61-13.53-3.54-17.96-5.8s-7.71-4.94-9.83-8.05c-2.12-3.11-3.18-6.82-3.18-11.12c0-7.14,3.02-13.18,9.06-18.12
			c6.04-4.94,13.76-7.41,23.16-7.41c9.88,0,17.89,2.55,24.04,7.65s9.22,11.63,9.22,19.57h-14.98c0-4.08-1.73-7.6-5.2-10.55
			c-3.46-2.95-7.83-4.43-13.09-4.43c-5.42,0-9.67,1.18-12.73,3.54c-3.06,2.36-4.59,5.45-4.59,9.26c0,3.6,1.42,6.31,4.27,8.13
			c2.84,1.83,7.99,3.57,15.42,5.24c7.44,1.67,13.46,3.65,18.08,5.96c4.62,2.31,8.04,5.09,10.27,8.34c2.23,3.25,3.34,7.21,3.34,11.88
			c0,7.79-3.12,14.03-9.34,18.73c-6.23,4.7-14.31,7.05-24.24,7.05c-6.98,0-13.16-1.24-18.53-3.71c-5.37-2.47-9.57-5.92-12.61-10.35
			c-3.03-4.43-4.55-9.22-4.55-14.38h14.9c0.27,4.99,2.27,8.95,6,11.88c3.73,2.93,8.66,4.39,14.78,4.39c5.64,0,10.16-1.14,13.57-3.42
			C1329.05,256.41,1330.76,253.36,1330.76,249.55z"/>
		<path class="st1" d="M1397.66,164.41v21.1h16.27v11.52h-16.27v54.11c0,3.49,0.72,6.12,2.17,7.86c1.45,1.75,3.92,2.62,7.41,2.62
			c1.72,0,4.08-0.32,7.09-0.97v12.01c-3.92,1.07-7.73,1.6-11.44,1.6c-6.66,0-11.68-2.01-15.06-6.04s-5.07-9.75-5.07-17.16v-54.04
			h-15.87v-11.52h15.87v-21.1H1397.66z"/>
		<path class="st1" d="M1485.82,198.88c-2.25-0.38-4.7-0.56-7.33-0.56c-9.77,0-16.4,4.16-19.89,12.48v61.86h-14.9v-87.15h14.5
			l0.24,10.07c4.89-7.79,11.81-11.68,20.78-11.68c2.9,0,5.1,0.38,6.6,1.13V198.88z"/>
		<path class="st1" d="M1562.47,272.66c-0.86-1.72-1.56-4.78-2.09-9.18c-6.93,7.2-15.2,10.79-24.81,10.79
			c-8.59,0-15.64-2.43-21.14-7.29c-5.5-4.86-8.26-11.02-8.26-18.48c0-9.07,3.45-16.12,10.35-21.14c6.9-5.02,16.61-7.53,29.12-7.53
			h14.5v-6.85c0-5.21-1.56-9.36-4.67-12.44c-3.12-3.09-7.71-4.63-13.77-4.63c-5.32,0-9.77,1.34-13.37,4.03
			c-3.6,2.69-5.4,5.93-5.4,9.75h-14.98c0-4.35,1.54-8.55,4.63-12.61c3.09-4.05,7.28-7.26,12.56-9.63c5.29-2.36,11.1-3.54,17.44-3.54
			c10.04,0,17.91,2.51,23.6,7.53c5.69,5.02,8.65,11.93,8.86,20.74v40.11c0,8,1.02,14.37,3.06,19.09v1.29H1562.47z M1537.74,261.31
			c4.67,0,9.1-1.21,13.29-3.63c4.19-2.42,7.22-5.56,9.1-9.42v-17.88h-11.68c-18.26,0-27.39,5.34-27.39,16.03
			c0,4.67,1.56,8.32,4.67,10.95C1528.85,259.99,1532.85,261.31,1537.74,261.31z"/>
	</g>
	
		<linearGradient id="SVGID_1_" gradientUnits="userSpaceOnUse" x1="126.759" y1="295.079" x2="126.759" y2="34.8191" gradientTransform="matrix(0.9871 -0.1603 0.1603 0.9871 -20.302 35.8159)">
		<stop  offset="0" style="stop-color:#000377"/>
		<stop  offset="1" style="stop-color:#002CF9"/>
	</linearGradient>
	<path class="st3" d="M228.4,186.51c0,0-19.63-15.22-47.5-20.11c-1.44-0.25-9.02-1.5-19.25-3.99c-1.46-0.36-2.56-0.63-3.08-0.77
		c-24.73-6.28-37.21-9.48-42.65-12.59c-3.1-1.78-19.95-11.94-21.9-28.94c-1.75-15.28,9.55-27.38,16.35-34.67
		c5.17-5.54,14.55-13.97,41.43-24.41c14.15-5.5,34.36-12.02,59.81-15.98c-7.63-2.05-18.72-4.31-32.21-4.5
		c-3.11-0.04-12.57-0.07-30.46,3.09c-19.24,3.39-32.51,5.86-47.99,12.72c-17.1,7.59-38.04,16.88-48.5,38.96
		c-2.08,4.4-9.78,20.66-4.44,38.64c6.33,21.33,27.26,31.56,41.99,38.78c7.74,3.8,26.73,9.25,64.39,20
		c14.05,4.01,22.72,6.39,30.43,14.66c1.74,1.87,14.23,15.81,10.92,33.09c-1.8,9.4-7.73,15.46-11.94,19.65
		c-8.69,8.66-19.12,13.65-39.23,18.91c-18.79,4.91-36.83,7.65-58.55,9.38c-13.34,1.06-31.41,2.01-53.02,1.66
		c10,4.44,24,9.75,41.3,13.52c6.98,1.52,36.37,7.57,76.04,2.9c19.12-2.25,39.48-4.65,62.85-16.75
		c16.78-8.69,35.81-18.55,41.76-39.03c5.19-17.87-2.76-34.54-4.67-38.62C244.06,198.82,234.73,191.42,228.4,186.51z"/>
	<linearGradient id="SVGID_2_" gradientUnits="userSpaceOnUse" x1="220.3604" y1="434.3277" x2="303.9507" y2="59.5986">
		<stop  offset="0" style="stop-color:#454545"/>
		<stop  offset="1" style="stop-color:#888888"/>
	</linearGradient>
	<path class="st5" d="M150.79,124.12c44.77-10.81,82.35-12.04,108.07-11.14c49.06,1.72,79.68,12.07,87.26,14.73
		c25.16,8.84,44.77,15.73,60.86,35.13c22.79,27.48,22.53,60.75,22.35,68.85c-1.07,48.38-34.45,82.08-64.59,111.74
		c-17.6,17.32-45.91,41.23-87.14,61.51c14.07-16.51,25.24-31.27,33.6-42.94c24.34-33.97,31.39-50.8,35.31-66.29
		c1.27-5,2.04-9.21,2.51-12.07c-38.79,23.5-93.38,50.77-162.43,68.8c-44.18,11.54-84.33,16.69-118.01,18.68
		c12.19-5.54,32.09-14.41,56.95-24.6c81.88-33.57,104.46-38.61,140.34-63.33c26.35-18.16,63.75-44.63,62.11-78.41
		c-0.72-14.84-8.73-26.05-13.6-32.86c-20.71-28.98-54.64-36.8-74.51-41.08c-53.93-11.63-101.25,1.09-101.71-1.98
		C138.06,128.15,140.4,126.83,150.79,124.12z"/>
</g>
<g id="Camada_2">
</g>
</svg>
