<svg width="1234" height="34" viewBox="0 0 1234 34" fill="none" xmlns="http://www.w3.org/2000/svg">
<path d="M681.646 15.6464C681.451 15.8417 681.451 16.1583 681.646 16.3536L684.828 19.5355C685.024 19.7308 685.34 19.7308 685.536 19.5355C685.731 19.3403 685.731 19.0237 685.536 18.8284L682.707 16L685.536 13.1716C685.731 12.9763 685.731 12.6597 685.536 12.4645C685.34 12.2692 685.024 12.2692 684.828 12.4645L681.646 15.6464ZM1233.36 16.3536C1233.55 16.1583 1233.55 15.8417 1233.36 15.6464L1230.18 12.4645C1229.98 12.2692 1229.66 12.2692 1229.47 12.4645C1229.27 12.6597 1229.27 12.9763 1229.47 13.1716L1232.3 16L1229.47 18.8284C1229.27 19.0237 1229.27 19.3403 1229.47 19.5355C1229.66 19.7308 1229.98 19.7308 1230.18 19.5355L1233.36 16.3536ZM682 16.5H1233V15.5H682V16.5Z" fill="#013F1E"/>
<line x1="576.575" y1="33.7373" x2="597.575" y2="-0.262747" stroke="#013F1E"/>
<line x1="606.575" y1="33.7373" x2="627.575" y2="-0.262747" stroke="#013F1E"/>
<line x1="636.575" y1="33.7373" x2="657.575" y2="-0.262747" stroke="#013F1E"/>
<path d="M552.357 16.3536C552.553 16.1583 552.553 15.8417 552.357 15.6464L549.175 12.4645C548.98 12.2692 548.664 12.2692 548.468 12.4645C548.273 12.6597 548.273 12.9763 548.468 13.1716L551.297 16L548.468 18.8284C548.273 19.0237 548.273 19.3403 548.468 19.5355C548.664 19.7308 548.98 19.7308 549.175 19.5355L552.357 16.3536ZM0.646729 15.6464C0.451477 15.8417 0.451477 16.1583 0.646729 16.3536L3.82874 19.5355C4.02399 19.7308 4.34058 19.7308 4.53583 19.5355C4.73108 19.3403 4.73108 19.0237 4.53583 18.8284L1.7074 16L4.53583 13.1716C4.73108 12.9763 4.73108 12.6597 4.53583 12.4645C4.34058 12.2692 4.02399 12.2692 3.82874 12.4645L0.646729 15.6464ZM552.004 15.5L1.00031 15.5V16.5L552.004 16.5V15.5Z" fill="#013F1E"/>
</svg>
